ffmpeg started on 2025-06-07 at 15:31:11
Report written to "D:\Convert\FFMetrics\reports\psnr_report-6.txt"
Log level: 32
Command line:
ffmpeg -hide_banner -nostdin -i "G:\\\xc0\xed\xe8\xec\xe5\\\xce\xed\xe3\xee\xe8\xed\xe3\xe8\\!_36_\xce\xf1\xe5\xed\xfc_2024\\DreamCast\\\xd1\xee\xe1\xeb\xe0\xe7\xed 2,5-\xec\xe5\xf0\xed\xee\xe3\xee \xe8\xe7\xec\xe5\xf0\xe5\xed\xe8\xff\\[DC] 2-5 Jigen no Ririsa - 16_Telegram_HEVC.mkv" -i "G:\\\xc0\xed\xe8\xec\xe5\\\xce\xed\xe3\xee\xe8\xed\xe3\xe8\\!_36_\xce\xf1\xe5\xed\xfc_2024\\DreamCast\\\xd1\xee\xe1\xeb\xe0\xe7\xed 2,5-\xec\xe5\xf0\xed\xee\xe3\xee \xe8\xe7\xec\xe5\xf0\xe5\xed\xe8\xff\\[DC] 2-5 Jigen no Ririsa - 16_Telegram.mp4" -lavfi "[0:v]settb=AVTB,setpts=PTS-STARTPTS,format=pix_fmts=yuv420p10,fps=24/1,scale=1920:1080:flags=bicubic[main];[1:v]settb=AVTB,setpts=PTS-STARTPTS,format=pix_fmts=yuv420p,fps=24/1,scale=1920:1080:flags=bicubic[ref];[main][ref]psnr=eof_action=endall:stats_file='D\\:/Convert/FFMetrics/logs/psnr_logfile-6.txt'" -f null -
Input #0, matroska,webm, from 'G:\Аниме\Онгоинги\!_36_Осень_2024\DreamCast\Соблазн 2,5-мерного измерения\[DC] 2-5 Jigen no Ririsa - 16_Telegram_HEVC.mkv':
  Metadata:
    COMPATIBLE_BRANDS: isomiso2avc1mp41
    MAJOR_BRAND     : isom
    MINOR_VERSION   : 512
    ENCODER         : Lavf61.7.100
  Duration: 00:24:09.13, start: -0.021000, bitrate: 1277 kb/s
  Stream #0:0: Video: hevc (Main 10), yuv420p10le(tv, bt709, progressive), 1920x1080 [SAR 1:1 DAR 16:9], 24 fps, 24 tbr, 1k tbn (default)
      Metadata:
        HANDLER_NAME    : VideoHandler
        VENDOR_ID       : [0][0][0][0]
        ENCODER         : Lavc61.19.100 libx265
        BPS             : 1080140
        DURATION        : 00:24:08.999666666
        NUMBER_OF_FRAMES: 34776
        NUMBER_OF_BYTES : 195640304
        _STATISTICS_WRITING_APP: mkvpropedit v66.0.0 ('Josie') 64-bit
        _STATISTICS_WRITING_DATE_UTC: 2025-06-04 12:28:34
        _STATISTICS_TAGS: BPS DURATION NUMBER_OF_FRAMES NUMBER_OF_BYTES
  Stream #0:1: Audio: aac (LC), 48000 Hz, stereo, fltp (default)
      Metadata:
        HANDLER_NAME    : SoundHandler
        VENDOR_ID       : [0][0][0][0]
        ENCODER         : Lavc61.19.100 aac
        BPS             : 193002
        DURATION        : 00:24:09.130000000
        NUMBER_OF_FRAMES: 67929
        NUMBER_OF_BYTES : 34960716
        _STATISTICS_WRITING_APP: mkvpropedit v66.0.0 ('Josie') 64-bit
        _STATISTICS_WRITING_DATE_UTC: 2025-06-04 12:28:34
        _STATISTICS_TAGS: BPS DURATION NUMBER_OF_FRAMES NUMBER_OF_BYTES
Input #1, mov,mp4,m4a,3gp,3g2,mj2, from 'G:\Аниме\Онгоинги\!_36_Осень_2024\DreamCast\Соблазн 2,5-мерного измерения\[DC] 2-5 Jigen no Ririsa - 16_Telegram.mp4':
  Metadata:
    major_brand     : isom
    minor_version   : 512
    compatible_brands: isomiso2avc1mp41
    encoder         : Lavf61.1.100
  Duration: 00:24:09.07, start: 0.000000, bitrate: 3861 kb/s
  Stream #1:0[0x1](und): Video: h264 (High) (avc1 / 0x31637661), yuv420p(tv, bt709, progressive), 1920x1080 [SAR 1:1 DAR 16:9], 3714 kb/s, 24 fps, 24 tbr, 12288 tbn (default)
      Metadata:
        handler_name    : VideoHandler
        vendor_id       : [0][0][0][0]
        encoder         : Lavc61.3.100 h264_qsv
  Stream #1:1[0x2](und): Audio: aac (HE-AACv2) (mp4a / 0x6134706D), 48000 Hz, stereo, fltp, 144 kb/s (default)
      Metadata:
        handler_name    : SoundHandler
        vendor_id       : [0][0][0][0]
Stream mapping:
  Stream #0:0 (hevc) -> settb:default
  Stream #1:0 (h264) -> settb:default
  psnr:default -> Stream #0:0 (wrapped_avframe)
  Stream #0:1 -> #0:1 (aac (native) -> pcm_s16le (native))
Output #0, null, to 'pipe:':
  Metadata:
    COMPATIBLE_BRANDS: isomiso2avc1mp41
    MAJOR_BRAND     : isom
    MINOR_VERSION   : 512
    encoder         : Lavf61.7.100
  Stream #0:0: Video: wrapped_avframe, yuv420p10le(tv, bt709, progressive), 1920x1080 [SAR 1:1 DAR 16:9], q=2-31, 200 kb/s, 24 fps, 24 tbn
      Metadata:
        encoder         : Lavc61.19.100 wrapped_avframe
  Stream #0:1: Audio: pcm_s16le, 48000 Hz, stereo, s16, 1536 kb/s (default)
      Metadata:
        HANDLER_NAME    : SoundHandler
        VENDOR_ID       : [0][0][0][0]
        _STATISTICS_TAGS: BPS DURATION NUMBER_OF_FRAMES NUMBER_OF_BYTES
        BPS             : 193002
        DURATION        : 00:24:09.130000000
        NUMBER_OF_FRAMES: 67929
        NUMBER_OF_BYTES : 34960716
        _STATISTICS_WRITING_APP: mkvpropedit v66.0.0 ('Josie') 64-bit
        _STATISTICS_WRITING_DATE_UTC: 2025-06-04 12:28:34
        encoder         : Lavc61.19.100 pcm_s16le
frame=  180 fps=0.0 q=-0.0 size=N/A time=00:00:07.50 bitrate=N/A speed=14.6x    frame=  414 fps=404 q=-0.0 size=N/A time=00:00:17.25 bitrate=N/A speed=16.8x    frame=  644 fps=416 q=-0.0 size=N/A time=00:00:26.83 bitrate=N/A speed=17.3x    frame=  874 fps=425 q=-0.0 size=N/A time=00:00:36.41 bitrate=N/A speed=17.7x    frame= 1077 fps=418 q=-0.0 size=N/A time=00:00:44.87 bitrate=N/A speed=17.4x    frame= 1214 fps=394 q=-0.0 size=N/A time=00:00:50.58 bitrate=N/A speed=16.4x    frame= 1362 fps=377 q=-0.0 size=N/A time=00:00:56.75 bitrate=N/A speed=15.7x    frame= 1502 fps=364 q=-0.0 size=N/A time=00:01:02.58 bitrate=N/A speed=15.2x    frame= 1662 fps=358 q=-0.0 size=N/A time=00:01:09.25 bitrate=N/A speed=14.9x    frame= 1864 fps=362 q=-0.0 size=N/A time=00:01:17.66 bitrate=N/A speed=15.1x    frame= 2119 fps=374 q=-0.0 size=N/A time=00:01:28.29 bitrate=N/A speed=15.6x    frame= 2330 fps=377 q=-0.0 size=N/A time=00:01:37.08 bitrate=N/A speed=15.7x    frame= 2561 fps=382 q=-0.0 size=N/A time=00:01:46.70 bitrate=N/A speed=15.9x    frame= 2808 fps=389 q=-0.0 size=N/A time=00:01:57.00 bitrate=N/A speed=16.2x    frame= 3055 fps=395 q=-0.0 size=N/A time=00:02:07.29 bitrate=N/A speed=16.5x    frame= 3284 fps=398 q=-0.0 size=N/A time=00:02:16.83 bitrate=N/A speed=16.6x    frame= 3459 fps=395 q=-0.0 size=N/A time=00:02:24.12 bitrate=N/A speed=16.4x    frame= 3631 fps=391 q=-0.0 size=N/A time=00:02:31.29 bitrate=N/A speed=16.3x    frame= 3844 fps=393 q=-0.0 size=N/A time=00:02:40.16 bitrate=N/A speed=16.4x    frame= 4062 fps=394 q=-0.0 size=N/A time=00:02:49.25 bitrate=N/A speed=16.4x    frame= 4280 fps=395 q=-0.0 size=N/A time=00:02:58.33 bitrate=N/A speed=16.4x    frame= 4501 fps=396 q=-0.0 size=N/A time=00:03:07.54 bitrate=N/A speed=16.5x    frame= 4735 fps=399 q=-0.0 size=N/A time=00:03:17.29 bitrate=N/A speed=16.6x    frame= 4907 fps=396 q=-0.0 size=N/A time=00:03:24.45 bitrate=N/A speed=16.5x    frame= 5129 fps=397 q=-0.0 size=N/A time=00:03:33.70 bitrate=N/A speed=16.6x    frame= 5354 fps=399 q=-0.0 size=N/A time=00:03:43.08 bitrate=N/A speed=16.6x    frame= 5583 fps=401 q=-0.0 size=N/A time=00:03:52.62 bitrate=N/A speed=16.7x    frame= 5840 fps=404 q=-0.0 size=N/A time=00:04:03.33 bitrate=N/A speed=16.8x    frame= 6098 fps=408 q=-0.0 size=N/A time=00:04:14.08 bitrate=N/A speed=  17x    frame= 6366 fps=411 q=-0.0 size=N/A time=00:04:25.25 bitrate=N/A speed=17.1x    frame= 6624 fps=414 q=-0.0 size=N/A time=00:04:36.00 bitrate=N/A speed=17.3x    frame= 6849 fps=415 q=-0.0 size=N/A time=00:04:45.37 bitrate=N/A speed=17.3x    frame= 7082 fps=416 q=-0.0 size=N/A time=00:04:55.08 bitrate=N/A speed=17.3x    frame= 7331 fps=418 q=-0.0 size=N/A time=00:05:05.45 bitrate=N/A speed=17.4x    frame= 7537 fps=417 q=-0.0 size=N/A time=00:05:14.04 bitrate=N/A speed=17.4x    frame= 7764 fps=418 q=-0.0 size=N/A time=00:05:23.50 bitrate=N/A speed=17.4x    frame= 8018 fps=420 q=-0.0 size=N/A time=00:05:34.08 bitrate=N/A speed=17.5x    frame= 8258 fps=421 q=-0.0 size=N/A time=00:05:44.08 bitrate=N/A speed=17.5x    frame= 8486 fps=421 q=-0.0 size=N/A time=00:05:53.58 bitrate=N/A speed=17.6x    frame= 8735 fps=423 q=-0.0 size=N/A time=00:06:03.95 bitrate=N/A speed=17.6x    frame= 8992 fps=425 q=-0.0 size=N/A time=00:06:14.66 bitrate=N/A speed=17.7x    frame= 9256 fps=427 q=-0.0 size=N/A time=00:06:25.66 bitrate=N/A speed=17.8x    frame= 9516 fps=429 q=-0.0 size=N/A time=00:06:36.50 bitrate=N/A speed=17.9x    frame= 9782 fps=430 q=-0.0 size=N/A time=00:06:47.58 bitrate=N/A speed=17.9x    frame=10039 fps=432 q=-0.0 size=N/A time=00:06:58.29 bitrate=N/A speed=  18x    frame=10299 fps=434 q=-0.0 size=N/A time=00:07:09.12 bitrate=N/A speed=18.1x    frame=10557 fps=435 q=-0.0 size=N/A time=00:07:19.87 bitrate=N/A speed=18.1x    frame=10795 fps=436 q=-0.0 size=N/A time=00:07:29.79 bitrate=N/A speed=18.2x    frame=11041 fps=437 q=-0.0 size=N/A time=00:07:40.04 bitrate=N/A speed=18.2x    frame=11286 fps=437 q=-0.0 size=N/A time=00:07:50.25 bitrate=N/A speed=18.2x    frame=11542 fps=438 q=-0.0 size=N/A time=00:08:00.91 bitrate=N/A speed=18.3x    frame=11792 fps=439 q=-0.0 size=N/A time=00:08:11.33 bitrate=N/A speed=18.3x    frame=12055 fps=441 q=-0.0 size=N/A time=00:08:22.29 bitrate=N/A speed=18.4x    frame=12288 fps=441 q=-0.0 size=N/A time=00:08:32.00 bitrate=N/A speed=18.4x    frame=12511 fps=441 q=-0.0 size=N/A time=00:08:41.29 bitrate=N/A speed=18.4x    frame=12720 fps=440 q=-0.0 size=N/A time=00:08:50.00 bitrate=N/A speed=18.3x    frame=12991 fps=442 q=-0.0 size=N/A time=00:09:01.29 bitrate=N/A speed=18.4x    frame=13258 fps=443 q=-0.0 size=N/A time=00:09:12.41 bitrate=N/A speed=18.5x    frame=13526 fps=444 q=-0.0 size=N/A time=00:09:23.58 bitrate=N/A speed=18.5x    frame=13757 fps=444 q=-0.0 size=N/A time=00:09:33.20 bitrate=N/A speed=18.5x    frame=14039 fps=446 q=-0.0 size=N/A time=00:09:44.95 bitrate=N/A speed=18.6x    frame=14315 fps=447 q=-0.0 size=N/A time=00:09:56.45 bitrate=N/A speed=18.6x    frame=14562 fps=448 q=-0.0 size=N/A time=00:10:06.75 bitrate=N/A speed=18.7x    frame=14833 fps=449 q=-0.0 size=N/A time=00:10:18.04 bitrate=N/A speed=18.7x    frame=14993 fps=447 q=-0.0 size=N/A time=00:10:24.70 bitrate=N/A speed=18.6x    frame=15171 fps=445 q=-0.0 size=N/A time=00:10:32.12 bitrate=N/A speed=18.6x    frame=15444 fps=446 q=-0.0 size=N/A time=00:10:43.50 bitrate=N/A speed=18.6x    frame=15705 fps=447 q=-0.0 size=N/A time=00:10:54.37 bitrate=N/A speed=18.6x    frame=15930 fps=447 q=-0.0 size=N/A time=00:11:03.75 bitrate=N/A speed=18.6x    frame=16154 fps=447 q=-0.0 size=N/A time=00:11:13.08 bitrate=N/A speed=18.6x    frame=16405 fps=448 q=-0.0 size=N/A time=00:11:23.54 bitrate=N/A speed=18.6x    frame=16629 fps=447 q=-0.0 size=N/A time=00:11:32.87 bitrate=N/A speed=18.6x    frame=16893 fps=448 q=-0.0 size=N/A time=00:11:43.87 bitrate=N/A speed=18.7x    frame=17141 fps=449 q=-0.0 size=N/A time=00:11:54.20 bitrate=N/A speed=18.7x    frame=17393 fps=449 q=-0.0 size=N/A time=00:12:04.70 bitrate=N/A speed=18.7x    frame=17630 fps=449 q=-0.0 size=N/A time=00:12:14.58 bitrate=N/A speed=18.7x    frame=17887 fps=450 q=-0.0 size=N/A time=00:12:25.29 bitrate=N/A speed=18.8x    frame=18152 fps=451 q=-0.0 size=N/A time=00:12:36.33 bitrate=N/A speed=18.8x    frame=18397 fps=451 q=-0.0 size=N/A time=00:12:46.54 bitrate=N/A speed=18.8x    frame=18631 fps=451 q=-0.0 size=N/A time=00:12:56.29 bitrate=N/A speed=18.8x    frame=18882 fps=452 q=-0.0 size=N/A time=00:13:06.75 bitrate=N/A speed=18.8x    frame=19143 fps=452 q=-0.0 size=N/A time=00:13:17.62 bitrate=N/A speed=18.8x    frame=19386 fps=453 q=-0.0 size=N/A time=00:13:27.75 bitrate=N/A speed=18.9x    frame=19608 fps=452 q=-0.0 size=N/A time=00:13:37.00 bitrate=N/A speed=18.8x    frame=19828 fps=452 q=-0.0 size=N/A time=00:13:46.16 bitrate=N/A speed=18.8x    frame=20066 fps=452 q=-0.0 size=N/A time=00:13:56.08 bitrate=N/A speed=18.8x    frame=20319 fps=453 q=-0.0 size=N/A time=00:14:06.62 bitrate=N/A speed=18.9x    frame=20590 fps=453 q=-0.0 size=N/A time=00:14:17.91 bitrate=N/A speed=18.9x    frame=20852 fps=454 q=-0.0 size=N/A time=00:14:28.83 bitrate=N/A speed=18.9x    frame=21098 fps=454 q=-0.0 size=N/A time=00:14:39.08 bitrate=N/A speed=18.9x    frame=21364 fps=455 q=-0.0 size=N/A time=00:14:50.16 bitrate=N/A speed=  19x    frame=21610 fps=455 q=-0.0 size=N/A time=00:15:00.41 bitrate=N/A speed=  19x    frame=21876 fps=456 q=-0.0 size=N/A time=00:15:11.50 bitrate=N/A speed=  19x    frame=22030 fps=454 q=-0.0 size=N/A time=00:15:17.91 bitrate=N/A speed=18.9x    frame=22282 fps=454 q=-0.0 size=N/A time=00:15:28.41 bitrate=N/A speed=18.9x    frame=22524 fps=455 q=-0.0 size=N/A time=00:15:38.50 bitrate=N/A speed=18.9x    frame=22742 fps=454 q=-0.0 size=N/A time=00:15:47.58 bitrate=N/A speed=18.9x    frame=22995 fps=455 q=-0.0 size=N/A time=00:15:58.12 bitrate=N/A speed=18.9x    frame=23241 fps=455 q=-0.0 size=N/A time=00:16:08.37 bitrate=N/A speed=  19x    frame=23513 fps=456 q=-0.0 size=N/A time=00:16:19.70 bitrate=N/A speed=  19x    frame=23757 fps=456 q=-0.0 size=N/A time=00:16:29.87 bitrate=N/A speed=  19x    frame=24011 fps=456 q=-0.0 size=N/A time=00:16:40.45 bitrate=N/A speed=  19x    frame=24278 fps=457 q=-0.0 size=N/A time=00:16:51.58 bitrate=N/A speed=  19x    frame=24530 fps=457 q=-0.0 size=N/A time=00:17:02.08 bitrate=N/A speed=  19x    frame=24758 fps=457 q=-0.0 size=N/A time=00:17:11.58 bitrate=N/A speed=  19x    frame=24967 fps=456 q=-0.0 size=N/A time=00:17:20.29 bitrate=N/A speed=  19x    frame=25222 fps=457 q=-0.0 size=N/A time=00:17:30.91 bitrate=N/A speed=  19x    frame=25462 fps=457 q=-0.0 size=N/A time=00:17:40.91 bitrate=N/A speed=  19x    frame=25723 fps=457 q=-0.0 size=N/A time=00:17:51.79 bitrate=N/A speed=19.1x    frame=25996 fps=458 q=-0.0 size=N/A time=00:18:03.16 bitrate=N/A speed=19.1x    frame=26262 fps=459 q=-0.0 size=N/A time=00:18:14.25 bitrate=N/A speed=19.1x    frame=26443 fps=458 q=-0.0 size=N/A time=00:18:21.79 bitrate=N/A speed=19.1x    frame=26652 fps=457 q=-0.0 size=N/A time=00:18:30.50 bitrate=N/A speed=  19x    frame=26932 fps=458 q=-0.0 size=N/A time=00:18:42.16 bitrate=N/A speed=19.1x    frame=27196 fps=458 q=-0.0 size=N/A time=00:18:53.16 bitrate=N/A speed=19.1x    frame=27437 fps=458 q=-0.0 size=N/A time=00:19:03.20 bitrate=N/A speed=19.1x    frame=27655 fps=458 q=-0.0 size=N/A time=00:19:12.29 bitrate=N/A speed=19.1x    frame=27887 fps=458 q=-0.0 size=N/A time=00:19:21.95 bitrate=N/A speed=19.1x    frame=28156 fps=458 q=-0.0 size=N/A time=00:19:33.16 bitrate=N/A speed=19.1x    frame=28421 fps=459 q=-0.0 size=N/A time=00:19:44.20 bitrate=N/A speed=19.1x    frame=28659 fps=459 q=-0.0 size=N/A time=00:19:54.12 bitrate=N/A speed=19.1x    frame=28896 fps=459 q=-0.0 size=N/A time=00:20:04.00 bitrate=N/A speed=19.1x    frame=29136 fps=459 q=-0.0 size=N/A time=00:20:14.00 bitrate=N/A speed=19.1x    frame=29350 fps=459 q=-0.0 size=N/A time=00:20:22.91 bitrate=N/A speed=19.1x    frame=29571 fps=458 q=-0.0 size=N/A time=00:20:32.12 bitrate=N/A speed=19.1x    frame=29826 fps=459 q=-0.0 size=N/A time=00:20:42.75 bitrate=N/A speed=19.1x    frame=30086 fps=459 q=-0.0 size=N/A time=00:20:53.58 bitrate=N/A speed=19.1x    frame=30334 fps=459 q=-0.0 size=N/A time=00:21:03.91 bitrate=N/A speed=19.1x    frame=30604 fps=460 q=-0.0 size=N/A time=00:21:15.16 bitrate=N/A speed=19.2x    frame=30885 fps=460 q=-0.0 size=N/A time=00:21:26.87 bitrate=N/A speed=19.2x    frame=31146 fps=461 q=-0.0 size=N/A time=00:21:37.75 bitrate=N/A speed=19.2x    frame=31395 fps=461 q=-0.0 size=N/A time=00:21:48.12 bitrate=N/A speed=19.2x    frame=31640 fps=461 q=-0.0 size=N/A time=00:21:58.33 bitrate=N/A speed=19.2x    frame=31903 fps=461 q=-0.0 size=N/A time=00:22:09.29 bitrate=N/A speed=19.2x    frame=32138 fps=461 q=-0.0 size=N/A time=00:22:19.08 bitrate=N/A speed=19.2x    frame=32372 fps=461 q=-0.0 size=N/A time=00:22:28.83 bitrate=N/A speed=19.2x    frame=32606 fps=461 q=-0.0 size=N/A time=00:22:38.58 bitrate=N/A speed=19.2x    frame=32820 fps=461 q=-0.0 size=N/A time=00:22:47.50 bitrate=N/A speed=19.2x    frame=33087 fps=461 q=-0.0 size=N/A time=00:22:58.62 bitrate=N/A speed=19.2x    frame=33329 fps=461 q=-0.0 size=N/A time=00:23:08.70 bitrate=N/A speed=19.2x    frame=33582 fps=462 q=-0.0 size=N/A time=00:23:19.25 bitrate=N/A speed=19.2x    frame=33818 fps=462 q=-0.0 size=N/A time=00:23:29.08 bitrate=N/A speed=19.2x    frame=34054 fps=462 q=-0.0 size=N/A time=00:23:38.91 bitrate=N/A speed=19.2x    frame=34272 fps=461 q=-0.0 size=N/A time=00:23:48.00 bitrate=N/A speed=19.2x    frame=34481 fps=461 q=-0.0 size=N/A time=00:23:56.70 bitrate=N/A speed=19.2x    frame=34720 fps=461 q=-0.0 size=N/A time=00:24:06.66 bitrate=N/A speed=19.2x    [Parsed_psnr_10 @ 00000139407810c0] PSNR y:46.718580 u:49.612412 v:49.363533 average:47.460758 min:37.537246 max:inf
[out#0/null @ 0000013933aa4a40] video:14943KiB audio:271716KiB subtitle:0KiB other streams:0KiB global headers:0KiB muxing overhead: unknown
frame=34776 fps=461 q=-0.0 Lsize=N/A time=00:24:09.00 bitrate=N/A speed=19.2x    
